<?xml version="1.0" encoding="utf-8"?>
<!-- Generator: Adobe Illustrator 28.1.0, SVG Export Plug-In . SVG Version: 6.00 Build 0)  -->
<svg version="1.1" id="Logo" xmlns="http://www.w3.org/2000/svg" xmlns:xlink="http://www.w3.org/1999/xlink" x="0px" y="0px"
	 width="222.29639px" height="278.31757px" viewBox="0 0 222.29639 278.31757"
	 style="enable-background:new 0 0 222.29639 278.31757;" xml:space="preserve">
<style type="text/css">
	.st0{fill:#2E2D2C;}
	.st1{fill:#D62125;}
	.st2{fill:#FFFFFF;}
	.st3{opacity:0.35;fill:#B21A22;}
</style>
<g>
	<g>
		<path class="st0" d="M14.03174,217.41914c-1.83203-1.64844-3.40723-1.75879-4.10303-1.75879
			c-0.76953,0-1.72217,0.11035-2.38135,0.84277c-0.3667,0.36621-0.62305,0.91602-0.62305,1.53906
			c0,0.58594,0.18311,1.02539,0.54932,1.35547c0.58643,0.5498,1.4292,0.76953,3.07764,1.39258l1.83203,0.69531
			c1.0625,0.40332,2.38135,0.95312,3.3335,1.86914c1.4292,1.35547,1.79541,3.11328,1.79541,4.54297
			c0,2.52734-0.87939,4.72559-2.16162,6.04492c-2.16162,2.27148-5.31201,2.49121-6.92432,2.49121
			c-1.7583,0-3.29736-0.25684-4.83594-1.02637C2.34473,234.78535,0.91602,233.64961,0,232.7336l2.93115-4.03027
			c0.62256,0.62305,1.61182,1.46582,2.27148,1.86816c0.95215,0.58594,1.94141,0.87988,3.07715,0.87988
			c0.73291,0,1.75879-0.14648,2.56445-0.84277c0.47656-0.40332,0.87939-1.0625,0.87939-1.97852
			c0-0.80566-0.32959-1.31934-0.84277-1.75879c-0.65918-0.5498-2.16162-1.09863-2.85742-1.35547l-2.01514-0.69629
			c-1.13574-0.40234-2.45459-0.91602-3.40723-1.94141c-1.28223-1.35547-1.46533-3.07715-1.46533-4.25
			c0-2.16113,0.65967-3.99316,2.125-5.49512c1.72168-1.75879,3.77344-2.23535,6.04492-2.23535
			c1.68506,0,4.39648,0.29297,7.25391,2.41797L14.03174,217.41914z"/>
		<path class="st0" d="M32.01855,211.44746c2.12451,0,4.46924,0.29297,6.41113,2.01465
			c2.08838,1.83203,2.38135,4.25,2.38135,5.93555c0,3.07715-1.17236,4.7998-2.08838,5.75195
			c-1.94141,1.97852-4.50635,2.16113-6.22803,2.16113h-3.44385v8.57324h-5.64209v-24.43652H32.01855z M29.05078,222.69453h2.01514
			c0.76904,0,2.125-0.03613,3.04053-0.91602c0.51318-0.5127,0.91602-1.35547,0.91602-2.41797
			c0-1.02539-0.36621-1.86816-0.91602-2.38086c-0.84229-0.80566-2.05127-0.91602-3.15039-0.91602h-1.90527V222.69453z"/>
		<path class="st0" d="M54.76807,211.44746c3.11377,0,5.05566,1.02637,6.22803,2.125c1.02588,0.98926,2.125,2.74805,2.125,5.45898
			c0,1.53809-0.33008,3.44336-1.90527,4.98242c-0.84277,0.80566-2.05176,1.53906-3.40723,1.86816l7.51074,10.00195h-6.8877
			l-6.59473-9.63574v9.63574h-5.64209v-24.43652H54.76807z M51.83691,222.54805h1.28223c1.02588,0,2.41797-0.10938,3.37061-1.0625
			c0.40283-0.40234,0.91602-1.17188,0.91602-2.38086c0-1.39258-0.65967-2.125-1.13574-2.49121
			c-0.91602-0.69629-2.38135-0.76953-3.11426-0.76953h-1.31885V222.54805z"/>
		<path class="st0" d="M76.01562,211.44746v24.43652h-5.64209v-24.43652H76.01562z"/>
		<path class="st0" d="M83.30518,235.88399v-24.43652h4.90918l13.2627,15.75391v-15.75391h5.6416v24.43652h-4.90918
			l-13.26172-15.82715v15.82715H83.30518z"/>
		<path class="st0" d="M126.05811,222.54805h12.12695v0.25684c0,2.96777-1.0625,7.47363-3.77344,10.29492
			s-5.8252,3.33398-8.71973,3.33398c-2.93066,0-6.08203-0.47656-8.93945-3.40723c-1.42871-1.46582-3.58984-4.43359-3.58984-9.30566
			c0-3.99316,1.46484-7.18066,3.5166-9.26953c3.00391-3.11328,6.70508-3.55371,9.59863-3.55371
			c2.01562,0,4.58008,0.33008,6.85156,1.83203c1.64844,1.09961,3.07715,2.82129,3.95605,4.35938l-5.0918,2.74805
			c-0.47656-0.95215-1.20898-1.94141-2.16211-2.6377c-1.09863-0.80566-2.34473-1.17188-3.73633-1.17188
			c-2.23535,0-3.88379,0.73242-5.05566,1.97754c-1.35645,1.42871-2.08887,3.51758-2.08887,5.78906
			c0,2.78418,1.02637,4.5791,2.05176,5.60547c1.42871,1.46484,3.07715,1.90527,4.94629,1.90527
			c2.41797,0,3.7002-0.84277,4.24902-1.31934c0.18359-0.14648,1.28223-1.09863,1.75879-2.89453h-5.89844V222.54805z"/>
		<path class="st0" d="M144.70361,211.44746h4.98242c2.45508,0,5.93555,0.25684,9.0127,2.85742
			c2.23535,1.86914,4.17676,4.98242,4.17676,9.37891c0,5.12891-2.52734,7.87695-4.28613,9.37891
			c-2.23535,1.90527-4.58008,2.82129-8.93945,2.82129h-4.94629V211.44746z M147.41553,233.31953h2.38086
			c1.94141,0,4.61621-0.21973,6.99805-2.19824c1.83105-1.53906,3.29688-3.95703,3.29688-7.4375
			c0-5.86133-4.10352-9.67188-10.29492-9.67188h-2.38086V233.31953z"/>
		<path class="st0" d="M181.33838,228.99629h-10.4043l-2.93164,6.8877h-3.00391l11.24707-25.6084l10.95508,25.6084h-3.00488
			L181.33838,228.99629z M180.27588,226.43184l-4.10352-9.78223l-4.17578,9.78223H180.27588z"/>
		<path class="st0" d="M195.00342,214.01192v21.87207h-2.71094v-21.87207h-5.93555v-2.56445h14.58105v2.56445H195.00342z"/>
		<path class="st0" d="M216.43408,228.99629h-10.4043l-2.93164,6.8877h-3.00391l11.24707-25.6084l10.95508,25.6084h-3.00488
			L216.43408,228.99629z M215.37158,226.43184l-4.10352-9.78223l-4.17578,9.78223H215.37158z"/>
	</g>
	<g>
		<path class="st0" d="M13.72705,258.97089H5.97266v4.52148h7.37207v4.55566H5.97266v5.1875h7.75439v4.55664H0.61719v-23.37791
			h13.10986V258.97089z"/>
		<path class="st0" d="M36.57129,277.05585c-2.05127,1.05176-3.7207,1.26172-5.11182,1.26172
			c-4.27734,0-7.16357-1.47168-9.11084-3.39941c-2.08643-2.0332-3.6167-5.11719-3.6167-8.86719
			c0-3.68066,1.53027-6.76465,3.6167-8.79785c2.05176-1.99803,5.04248-3.36424,8.65869-3.36424
			c1.53027,0,3.30371,0.31543,5.56396,1.29688v6.23827c-1.18213-1.26172-2.95557-2.48828-5.4248-2.48828
			c-1.94727,0-3.51221,0.63086-4.729,1.82227c-1.28711,1.26172-2.19092,3.1543-2.19092,5.39746
			c0,2.41895,0.97363,4.13574,2.0166,5.15234c0.48682,0.49121,2.15625,1.96289,5.00781,1.96289
			c1.39111,0,3.26904-0.38574,5.32031-2.41797V277.05585z"/>
		<path class="st0" d="M47.93945,254.41426v18.82127h7.19824v4.55664H42.58398v-23.37791H47.93945z"/>
		<path class="st0" d="M65.35889,254.41426v23.37791h-5.35498v-23.37791H65.35889z"/>
		<path class="st0" d="M80.44922,254.41426c2.01709,0,4.24268,0.28027,6.08594,1.92772
			c1.98193,1.75195,2.26025,4.06543,2.26025,5.67773c0,2.94434-1.11328,4.5918-1.98242,5.50293
			c-1.84277,1.89258-4.27734,2.06836-5.91162,2.06836h-3.26855v8.20117h-5.35547v-23.37791H80.44922z M77.63281,265.17401h1.9126
			c0.72998,0,2.0166-0.03516,2.88623-0.87598c0.48682-0.49023,0.86914-1.29688,0.86914-2.31348
			c0-0.98145-0.34766-1.78711-0.86914-2.27832c-0.7998-0.77051-1.94727-0.87598-2.99072-0.87598h-1.80811V265.17401z"/>
		<path class="st0" d="M105.86572,260.12714c-1.73828-1.57715-3.23438-1.68262-3.89453-1.68262
			c-0.73047,0-1.63477,0.10547-2.26074,0.80664c-0.34766,0.35059-0.59082,0.87598-0.59082,1.47168
			c0,0.56152,0.17383,0.98145,0.52148,1.29688c0.55664,0.52637,1.35645,0.73633,2.9209,1.33203l1.73926,0.66602
			c1.00781,0.38574,2.25977,0.91113,3.16406,1.78711c1.35645,1.29688,1.7041,2.97949,1.7041,4.34668
			c0,2.41797-0.83496,4.52148-2.05176,5.7832c-2.05176,2.17285-5.04199,2.38281-6.57227,2.38281
			c-1.66895,0-3.12988-0.24512-4.59082-0.98145c-1.18164-0.5957-2.53809-1.68164-3.40723-2.55859l2.78125-3.85547
			c0.5918,0.59668,1.53027,1.40234,2.15625,1.78809c0.9043,0.56055,1.84375,0.84082,2.9209,0.84082
			c0.69629,0,1.66992-0.13965,2.43457-0.80566c0.45215-0.38574,0.83496-1.0166,0.83496-1.89258
			c0-0.77148-0.31348-1.26172-0.7998-1.68262c-0.62598-0.52539-2.05176-1.05176-2.71289-1.29688l-1.91211-0.66602
			c-1.07812-0.38574-2.33008-0.87598-3.23438-1.85742c-1.2168-1.29688-1.39062-2.94434-1.39062-4.06543
			c0-2.06836,0.62598-3.82129,2.0166-5.25781c1.63477-1.6826,3.58203-2.13768,5.73828-2.13768
			c1.59961,0,4.17285,0.28027,6.88477,2.31248L105.86572,260.12714z"/>
		<path class="st0" d="M127.87549,258.97089h-7.75488v4.52148h7.37305v4.55566h-7.37305v5.1875h7.75488v4.55664h-13.11035v-23.37791
			h13.11035V258.97089z"/>
		<path class="st0" d="M144.77295,259.0412c-0.3125-0.63184-0.83496-1.33203-1.35645-1.75293
			c-0.45215-0.35059-1.28613-0.80566-2.60742-0.80566c-2.2959,0-3.89551,1.43652-3.89551,3.60938
			c0,0.91113,0.24414,1.4375,0.87012,2.0332c0.69531,0.70117,1.56445,1.08594,2.43359,1.47168l2.22559,0.98145
			c1.35645,0.5957,2.6084,1.22656,3.58203,2.20801c1.18262,1.19238,1.66895,2.55859,1.66895,4.24121
			c0,4.31152-3.16406,7.18555-7.33691,7.18555c-1.53027,0-3.44336-0.31543-5.04297-1.89258
			c-1.14746-1.12207-1.84277-2.73438-2.15625-4.13672l2.50391-0.7002c0.17383,1.22656,0.73047,2.27832,1.3916,2.97852
			c1.00781,1.0166,2.15527,1.29688,3.33789,1.29688c3.16504,0,4.66016-2.27832,4.66016-4.62598
			c0-1.05176-0.31348-1.96289-1.14746-2.73438c-0.66113-0.63086-1.56543-1.05078-2.78223-1.6123l-2.08691-0.98145
			c-0.90332-0.41992-2.05078-0.91113-3.09473-1.92773c-1.00781-0.98145-1.59961-2.06738-1.59961-3.82031
			c0-3.60938,2.74707-6.02831,6.50293-6.02831c1.42578,0,2.57324,0.28027,3.7207,1.05176
			c0.93945,0.63086,1.73926,1.57713,2.26074,2.59373L144.77295,259.0412z"/>
		<path class="st0" d="M156.66357,256.86737v20.9248h-2.57324v-20.9248h-5.63281v-2.45311h13.83984v2.45311H156.66357z"/>
		<path class="st0" d="M163.30322,266.1203c0-6.97461,5.39062-12.09178,12.06738-12.09178s12.06641,5.11717,12.06641,12.09178
			c0,6.94043-5.35449,12.09277-12.06641,12.09277S163.30322,273.06073,163.30322,266.1203z M165.94678,266.1203
			c0,5.36328,4.20801,9.63867,9.42383,9.63867s9.42383-4.27539,9.42383-9.63867c0-5.3623-4.20801-9.6377-9.42383-9.6377
			S165.94678,260.758,165.94678,266.1203z"/>
		<path class="st0" d="M195.8833,254.41426c1.56445,0,3.89453,0.10547,5.63281,1.29688
			c1.35645,0.91112,2.53906,2.69823,2.53906,5.18748c0,3.5752-2.33008,6.20312-5.84277,6.44922l7.37305,10.44434h-3.12988
			L195.396,267.5578h-0.66016v10.23438h-2.57422v-23.37791H195.8833z M194.73584,265.24432h1.63379
			c3.19922,0,5.1123-1.54199,5.1123-4.27539c0-1.29688-0.38281-2.59375-1.84375-3.43555
			c-1.04297-0.5957-2.22559-0.66602-3.33789-0.66602h-1.56445V265.24432z"/>
		<path class="st0" d="M221.64893,256.86737h-9.45801v6.94043h9.17969v2.45312h-9.17969v9.07812h9.45801v2.45312H209.6167v-23.37791
			h12.03223V256.86737z"/>
	</g>
</g>
<g>
	<path class="st1" d="M149.05203,187.84477H72.36266c-2.94196,0-5.3269-2.38493-5.3269-5.3269V45.96329
		c0-2.94197,2.38493-5.3269,5.3269-5.3269h76.68938c2.94197,0,5.3269,2.38494,5.3269,5.3269v136.55457
		C154.37894,185.45984,151.994,187.84477,149.05203,187.84477z"/>
	<rect x="67.03576" y="66.04948" class="st2" width="87.34319" height="17.62557"/>
	<rect x="67.03581" y="149.9933" class="st2" width="87.34313" height="17.62557"/>
	<path class="st3" d="M86.39558,40.63635h-14.0329c-2.94196,0-5.3269,2.38495-5.3269,5.3269v136.55463
		c0,2.94189,2.38495,5.3269,5.3269,5.3269h14.0329V40.63635z"/>
	<path class="st3" d="M149.05208,40.63635h-0.77856v147.20844h0.77856c2.94189,0,5.3269-2.38501,5.3269-5.3269V45.96326
		C154.37898,43.0213,151.99397,40.63635,149.05208,40.63635z"/>
	<path class="st1" d="M190.76643,98.70068c-8.11926,0-15.00049,5.23651-17.4939,12.51025h-125.201
		c-2.49341-7.27374-9.37469-12.51025-17.4939-12.51025c-10.2207,0-18.50629,8.28552-18.50629,18.50629
		c0,10.2207,8.28558,18.50623,18.50629,18.50623c8.15491,0,15.06317-5.28149,17.52863-12.60522h125.13148
		c2.46545,7.32373,9.37378,12.60522,17.52869,12.60522c10.2207,0,18.50623-8.28552,18.50623-18.50623
		C209.27266,106.98621,200.98714,98.70068,190.76643,98.70068z"/>
</g>
<g>
	<path class="st0" d="M68.01991,9.35942L62.8168,0h2.44161l4.01126,7.29589L73.39731,0h2.44161l-5.31921,9.35942l5.60986,10.02815
		h-2.44161l-4.44724-7.96462l-4.50543,7.96462h-2.44162L68.01991,9.35942z"/>
	<path class="st0" d="M90.66145,0h3.95308c1.94744,0,4.70894,0.20323,7.15055,2.26677
		c1.77317,1.48279,3.31358,3.95336,3.31358,7.44121c0,4.06973-2.00563,6.24964-3.40072,7.44121
		c-1.77316,1.51175-3.63347,2.23838-7.09237,2.23838h-3.92413V0z M92.81242,17.35299h1.88925
		c1.5407,0,3.6627-0.17428,5.55196-1.74393c1.45328-1.22109,2.61618-3.1393,2.61618-5.90108
		c0-4.65047-3.25568-7.6734-8.16814-7.6734h-1.88925V17.35299z"/>
	<path class="st0" d="M130.7139,2.03458h-7.90615v5.75519h7.67368v2.03458h-7.67368v7.52864h7.90615v2.03458h-10.05711V0h10.05711
		V2.03458z"/>
	<path class="st0" d="M146.40868,0l5.46454,14.795L157.33774,0h2.38371l-7.84824,20.55019L144.02496,0H146.40868z"/>
</g>
<g>
</g>
<g>
</g>
<g>
</g>
<g>
</g>
<g>
</g>
<g>
</g>
</svg>
