<svg version="1.1" id="Logo" xmlns="http://www.w3.org/2000/svg" x="0" y="0" width="222.296" height="278.318" style="enable-background:new 0 0 222.29639 278.31757" xml:space="preserve"><style>.st0{fill:#2e2d2c}.st1{fill:#d62125}.st2{fill:#fff}.st3{opacity:.35;fill:#b21a22}</style><path class="st0" d="M14.032 217.42c-1.832-1.65-3.407-1.76-4.103-1.76-.77 0-1.722.11-2.382.843a2.184 2.184 0 0 0-.623 1.54c0 .585.183 1.025.55 1.355.586.55 1.429.77 3.077 1.392l1.832.696c1.063.403 2.382.953 3.334 1.869 1.429 1.355 1.795 3.113 1.795 4.543 0 2.527-.88 4.725-2.161 6.045-2.162 2.271-5.312 2.49-6.925 2.49-1.758 0-3.297-.256-4.836-1.026-1.245-.622-2.674-1.757-3.59-2.673l2.931-4.03c.623.622 1.612 1.465 2.272 1.867.952.586 1.941.88 3.077.88.733 0 1.759-.146 2.564-.842.477-.404.88-1.063.88-1.979 0-.806-.33-1.32-.843-1.759-.66-.55-2.162-1.098-2.858-1.355l-2.015-.696c-1.135-.403-2.454-.916-3.407-1.942-1.282-1.355-1.465-3.077-1.465-4.25 0-2.161.66-3.993 2.125-5.495 1.721-1.759 3.773-2.235 6.045-2.235 1.685 0 4.396.293 7.254 2.418l-2.528 4.103zM32.019 211.447c2.124 0 4.469.293 6.41 2.015 2.09 1.832 2.382 4.25 2.382 5.936 0 3.077-1.172 4.8-2.088 5.752-1.942 1.978-4.507 2.16-6.228 2.16H29.05v8.574h-5.642v-24.437h8.61zm-2.968 11.248h2.015c.769 0 2.125-.037 3.04-.916.514-.513.916-1.356.916-2.418 0-1.026-.366-1.869-.916-2.381-.842-.806-2.05-.916-3.15-.916h-1.905v6.63zM54.768 211.447c3.114 0 5.056 1.027 6.228 2.125 1.026.99 2.125 2.749 2.125 5.46 0 1.538-.33 3.443-1.905 4.982a7.687 7.687 0 0 1-3.407 1.868l7.51 10.002h-6.887l-6.595-9.636v9.636h-5.642v-24.437h8.573zm-2.931 11.101h1.282c1.026 0 2.418-.11 3.37-1.062.404-.403.917-1.172.917-2.381 0-1.393-.66-2.125-1.136-2.492-.916-.696-2.381-.77-3.114-.77h-1.32v6.705zM76.016 211.447v24.437h-5.642v-24.437h5.642zM83.305 235.884v-24.437h4.91l13.262 15.754v-15.754h5.642v24.437h-4.91l-13.261-15.827v15.827h-5.643zM126.058 222.548h12.127v.257c0 2.968-1.062 7.474-3.773 10.295s-5.826 3.334-8.72 3.334c-2.93 0-6.082-.477-8.94-3.407-1.428-1.466-3.59-4.434-3.59-9.306 0-3.993 1.465-7.18 3.517-9.27 3.004-3.113 6.705-3.553 9.599-3.553 2.015 0 4.58.33 6.851 1.832 1.649 1.1 3.078 2.821 3.956 4.36l-5.091 2.747c-.477-.952-1.21-1.941-2.162-2.638-1.1-.805-2.345-1.171-3.737-1.171-2.235 0-3.884.732-5.055 1.977-1.357 1.429-2.09 3.518-2.09 5.79 0 2.783 1.027 4.578 2.052 5.605 1.43 1.464 3.078 1.905 4.947 1.905 2.418 0 3.7-.843 4.249-1.32.183-.146 1.282-1.098 1.759-2.894h-5.899v-4.543zM144.704 211.447h4.982c2.455 0 5.936.257 9.013 2.858 2.235 1.869 4.176 4.982 4.176 9.379 0 5.129-2.527 7.877-4.286 9.379-2.235 1.905-4.58 2.821-8.94 2.821h-4.945v-24.437zm2.712 21.873h2.38c1.942 0 4.617-.22 6.998-2.199 1.831-1.539 3.297-3.957 3.297-7.437 0-5.862-4.103-9.672-10.295-9.672h-2.38v19.308zM181.338 228.996h-10.404l-2.932 6.888H165l11.247-25.608 10.955 25.608h-3.005l-2.858-6.888zm-1.062-2.564-4.104-9.782-4.175 9.782h8.279zM195.003 214.012v21.872h-2.71v-21.872h-5.936v-2.565h14.581v2.565h-5.935zM216.434 228.996H206.03l-2.932 6.888h-3.004l11.247-25.608 10.955 25.608h-3.004l-2.858-6.888zm-1.062-2.564-4.104-9.782-4.176 9.782h8.28zM13.727 258.97H5.973v4.522h7.372v4.556H5.973v5.188h7.754v4.556H.617v-23.378h13.11v4.557zM36.571 277.056c-2.051 1.052-3.72 1.262-5.112 1.262-4.277 0-7.163-1.472-9.11-3.4-2.087-2.033-3.617-5.117-3.617-8.867 0-3.68 1.53-6.765 3.617-8.798 2.051-1.998 5.042-3.364 8.658-3.364 1.53 0 3.304.315 5.564 1.297v6.238c-1.182-1.262-2.955-2.488-5.425-2.488-1.947 0-3.512.63-4.729 1.822-1.287 1.262-2.19 3.154-2.19 5.397 0 2.42.973 4.136 2.016 5.153.487.491 2.156 1.963 5.008 1.963 1.391 0 3.269-.386 5.32-2.418v6.203zM47.94 254.414v18.822h7.198v4.556H42.584v-23.378h5.355zM65.359 254.414v23.378h-5.355v-23.378h5.355zM80.45 254.414c2.016 0 4.242.28 6.085 1.928 1.982 1.752 2.26 4.065 2.26 5.678 0 2.944-1.113 4.592-1.982 5.503-1.843 1.892-4.277 2.068-5.912 2.068h-3.268v8.201h-5.356v-23.378h8.172zm-2.817 10.76h1.912c.73 0 2.017-.035 2.887-.876.486-.49.869-1.297.869-2.313 0-.982-.348-1.788-.87-2.279-.8-.77-1.947-.876-2.99-.876h-1.808v6.344zM105.866 260.127c-1.739-1.577-3.235-1.682-3.895-1.682-.73 0-1.635.105-2.26.806-.348.35-.591.876-.591 1.472 0 .561.173.981.521 1.297.557.526 1.357.736 2.921 1.332l1.74.666c1.007.386 2.259.91 3.163 1.787 1.357 1.297 1.704 2.98 1.704 4.347 0 2.418-.835 4.521-2.051 5.783-2.052 2.173-5.042 2.383-6.573 2.383-1.669 0-3.13-.246-4.59-.982-1.182-.596-2.539-1.682-3.408-2.558l2.782-3.856c.591.597 1.53 1.402 2.156 1.788a5.36 5.36 0 0 0 2.92.841c.697 0 1.67-.14 2.435-.806.452-.385.835-1.016.835-1.892 0-.772-.313-1.262-.8-1.683-.626-.525-2.051-1.052-2.712-1.297l-1.913-.666c-1.078-.386-2.33-.876-3.234-1.857-1.217-1.297-1.39-2.945-1.39-4.066 0-2.068.625-3.82 2.016-5.257 1.635-1.683 3.582-2.138 5.738-2.138 1.6 0 4.173.28 6.885 2.312l-2.4 3.926zM127.875 258.97h-7.754v4.522h7.373v4.556h-7.373v5.188h7.754v4.556h-13.11v-23.378h13.11v4.557zM144.773 259.041c-.313-.632-.835-1.332-1.356-1.753-.453-.35-1.287-.805-2.608-.805-2.296 0-3.895 1.436-3.895 3.609 0 .911.244 1.437.87 2.033.695.701 1.564 1.086 2.433 1.472l2.226.981c1.356.596 2.608 1.227 3.582 2.208 1.183 1.193 1.669 2.559 1.669 4.242 0 4.311-3.164 7.185-7.337 7.185-1.53 0-3.443-.315-5.043-1.892-1.147-1.123-1.843-2.735-2.156-4.137l2.504-.7c.173 1.226.73 2.278 1.391 2.978 1.008 1.017 2.156 1.297 3.338 1.297 3.165 0 4.66-2.278 4.66-4.626 0-1.052-.313-1.963-1.147-2.734-.661-.631-1.566-1.051-2.782-1.613l-2.087-.981c-.904-.42-2.051-.911-3.095-1.928-1.008-.981-1.6-2.067-1.6-3.82 0-3.61 2.747-6.028 6.503-6.028 1.426 0 2.574.28 3.721 1.051.94.631 1.74 1.577 2.26 2.594l-2.051 1.367zM156.664 256.867v20.925h-2.574v-20.925h-5.632v-2.453h13.84v2.453h-5.634zM163.303 266.12c0-6.974 5.39-12.091 12.068-12.091s12.066 5.117 12.066 12.091c0 6.94-5.354 12.093-12.066 12.093s-12.068-5.152-12.068-12.093zm2.644 0c0 5.364 4.208 9.639 9.424 9.639s9.423-4.275 9.423-9.639c0-5.362-4.208-9.637-9.423-9.637s-9.424 4.275-9.424 9.637zM195.883 254.414c1.565 0 3.895.106 5.633 1.297 1.357.911 2.54 2.698 2.54 5.188 0 3.575-2.33 6.203-5.844 6.449l7.373 10.444h-3.13l-7.059-10.234h-.66v10.234h-2.574v-23.378h3.721zm-1.147 10.83h1.634c3.199 0 5.112-1.542 5.112-4.275 0-1.297-.383-2.594-1.844-3.436-1.043-.595-2.225-.666-3.338-.666h-1.564v8.377zM221.649 256.867h-9.458v6.94h9.18v2.454h-9.18v9.078h9.458v2.453h-12.032v-23.378h12.032v2.453z"/><path class="st1" d="M149.052 187.845h-76.69a5.327 5.327 0 0 1-5.326-5.327V45.963a5.327 5.327 0 0 1 5.327-5.327h76.689a5.327 5.327 0 0 1 5.327 5.327v136.555a5.327 5.327 0 0 1-5.327 5.327z"/><path class="st2" d="M67.036 66.049h87.343v17.626H67.036zM67.036 149.993h87.343v17.626H67.036z"/><path class="st3" d="M86.396 40.636H72.363a5.327 5.327 0 0 0-5.327 5.327v136.555a5.327 5.327 0 0 0 5.327 5.327h14.033V40.636zM149.052 40.636h-.778v147.209h.778a5.327 5.327 0 0 0 5.327-5.327V45.963a5.327 5.327 0 0 0-5.327-5.327z"/><path class="st1" d="M190.766 98.7c-8.119 0-15 5.237-17.493 12.51H48.072c-2.494-7.273-9.375-12.51-17.494-12.51-10.221 0-18.507 8.286-18.507 18.507 0 10.22 8.286 18.506 18.507 18.506 8.155 0 15.063-5.281 17.528-12.605h125.132c2.465 7.324 9.374 12.605 17.528 12.605 10.221 0 18.507-8.285 18.507-18.506 0-10.22-8.286-18.506-18.507-18.506z"/><path class="st0" d="M68.02 9.36 62.817 0h2.441l4.012 7.296L73.397 0h2.442l-5.32 9.36 5.61 10.028h-2.441l-4.447-7.965-4.506 7.965h-2.441L68.02 9.359zM90.661 0h3.954c1.947 0 4.708.203 7.15 2.267 1.773 1.483 3.314 3.953 3.314 7.441 0 4.07-2.006 6.25-3.401 7.441-1.773 1.512-3.634 2.239-7.092 2.239H90.66V0zm2.151 17.353h1.89c1.54 0 3.662-.174 5.552-1.744 1.453-1.221 2.616-3.14 2.616-5.901 0-4.65-3.256-7.673-8.168-7.673h-1.89v15.318zM130.714 2.035h-7.906V7.79h7.673v2.034h-7.673v7.529h7.906v2.035h-10.057V0h10.057v2.035zM146.409 0l5.464 14.795L157.338 0h2.383l-7.848 20.55L144.025 0h2.384z"/></svg>